<svg width="20" height="20" viewBox="0 0 20 20" fill="none" xmlns="http://www.w3.org/2000/svg">
<path d="M12.7743 16.8665H9.7454C10.0223 17.4647 10.0516 18.0614 9.80719 18.6589C9.63979 19.0733 9.34478 19.4237 8.96492 19.6592C8.58264 19.9018 8.13353 20.0177 7.68158 19.9901C7.22962 19.9626 6.79789 19.7932 6.44788 19.5059C5.83906 19.0077 5.35106 18.02 5.89771 16.8172C5.84922 16.8023 5.80269 16.7875 5.75577 16.7738C4.7391 16.4801 4.09508 15.6719 3.95197 14.5547C3.71735 12.7204 3.46475 10.8885 3.22075 9.05534C2.99369 7.34578 2.7669 5.6353 2.54037 3.92391C2.46216 3.33737 2.39178 2.74771 2.29988 2.1643C2.26628 1.97223 2.20517 1.78602 2.11845 1.61139C1.96751 1.29857 1.7458 1.09289 1.35087 1.14215C1.09396 1.17344 0.830019 1.15349 0.568814 1.14567C0.447136 1.14272 0.329557 1.10111 0.233104 1.02687C0.136651 0.95263 0.0663315 0.849619 0.0323272 0.732751C-0.00680369 0.624377 -0.0105077 0.506375 0.0217493 0.39576C0.0540062 0.285144 0.120558 0.18763 0.211808 0.117277C0.293443 0.0566144 0.391031 0.0211402 0.492564 0.0152192C0.94068 0.0046615 1.39388 -0.0160629 1.84004 0.0218666C2.07088 0.0493763 2.2909 0.135234 2.47937 0.271341C3.09679 0.70929 3.37208 1.35292 3.47883 2.0814C3.52145 2.36489 3.56681 2.64839 3.58949 2.93266C3.60161 3.08047 3.65596 3.11214 3.79399 3.11175C5.08438 3.10667 6.37476 3.10901 7.66515 3.10901H7.9154V5.0833C7.86535 5.0966 7.80513 5.1138 7.74374 5.12866C7.08096 5.29172 6.63753 5.69839 6.44515 6.35101C6.25667 6.98877 6.39001 7.57765 6.85612 8.05001C7.92309 9.13029 9.00128 10.1991 10.0907 11.2564C10.7715 11.9169 11.8112 11.9212 12.4935 11.2631C13.5853 10.2081 14.6631 9.13928 15.7269 8.05666C16.2149 7.56123 16.3475 6.9481 16.1238 6.28571C15.9001 5.62331 15.42 5.23971 14.7396 5.1052C14.6958 5.0966 14.6516 5.0923 14.6004 5.08487V3.11996C14.6676 3.11605 14.7251 3.11019 14.7822 3.11019C15.7856 3.11019 16.7893 3.10628 17.7931 3.11019C18.7969 3.1141 19.5555 3.68499 19.7768 4.58318C19.8882 5.03521 19.792 5.47785 19.7338 5.92166C19.5336 7.44562 19.3301 8.96905 19.1234 10.492C19.0643 10.9307 19.0201 11.3726 18.9333 11.8058C18.7194 12.8741 17.7626 13.671 16.6709 13.7042C16.2607 13.7168 15.8497 13.7089 15.4395 13.7089H5.00265C5.09063 14.1481 5.11996 14.5794 5.26894 14.9626C5.4539 15.4349 5.86995 15.6664 6.38493 15.6813C6.60625 15.6883 6.82796 15.6813 7.04967 15.6813C10.7055 15.6813 14.3615 15.6813 18.0176 15.6813C18.1344 15.6757 18.2514 15.6865 18.3652 15.7133C18.4938 15.754 18.6041 15.8383 18.6771 15.9517C18.7501 16.0651 18.7811 16.2004 18.7648 16.3343C18.7218 16.6319 18.4911 16.8426 18.17 16.8512C17.747 16.861 17.3231 16.854 16.8992 16.8543H16.6756C17.0951 18.0067 16.8871 18.9753 15.8485 19.6678C15.1157 20.1562 14.1499 20.092 13.4457 19.5677C12.6288 18.9647 12.4274 18.1569 12.7743 16.8665Z" fill="white"/>
<path d="M9.10626 6.25626V5.99466C9.10626 4.22201 9.10626 2.44936 9.10626 0.676713C9.1012 0.553722 9.11992 0.430911 9.16139 0.315014C9.24468 0.117155 9.39288 0.00219343 9.63062 0.00493061C10.7122 0.0119691 11.7938 0.00805881 12.8761 0.00805881C13.1745 0.00805881 13.388 0.2067 13.4134 0.509354C13.4193 0.58052 13.4161 0.652469 13.4161 0.724027V6.25626C13.7458 6.25626 14.057 6.26212 14.3679 6.25626C14.6553 6.24922 14.8841 6.3415 14.9998 6.61756C15.1155 6.89363 15.0166 7.12003 14.8129 7.32141C13.7983 8.32478 12.785 9.32972 11.7731 10.3362C11.4489 10.6573 11.1337 10.651 10.8053 10.3253C9.79668 9.32477 8.7877 8.32465 7.77833 7.32493C7.57422 7.12316 7.47568 6.89832 7.5883 6.62108C7.70091 6.34385 7.92849 6.24844 8.21667 6.25587C8.50486 6.2633 8.78953 6.25626 9.10626 6.25626Z" fill="white"/>
</svg>
