<svg width="252" height="94" viewBox="0 0 252 94" fill="none" xmlns="http://www.w3.org/2000/svg">
<path d="M252 0H0V94H252V0Z" fill="#AED9FF" fill-opacity="0.15"/>
<path d="M37.2311 62.5271C36.673 62.3181 36.1401 62.1697 35.6523 61.9259C33.6991 60.9502 32.5981 58.772 32.8844 56.5311C33.1595 54.3741 34.8337 52.5477 36.937 52.1241C37.2459 52.0569 37.5604 52.0196 37.8762 52.0128C39.8947 52.0008 41.9138 51.9916 43.9311 52.0122C46.3408 52.0367 48.4514 53.854 48.9074 56.2548C49.1639 57.6167 48.8826 59.0271 48.1251 60.1772C47.3675 61.3274 46.1954 62.1237 44.8653 62.3918C44.4907 62.4607 44.1113 62.4988 43.7308 62.506C43.1822 62.5248 42.6281 62.5602 42.0856 62.498C41.4277 62.4232 40.9768 62.6692 40.5471 63.1597C39.9232 63.8762 39.2267 64.5248 38.5654 65.2082C38.3109 65.4714 38.0213 65.5804 37.6809 65.4366C37.3505 65.2955 37.2277 65.0101 37.2294 64.6555C37.2333 63.9333 37.2311 63.2099 37.2311 62.5271ZM40.8953 58.0007C41.0877 58.0021 41.2728 57.9253 41.4098 57.7872C41.5469 57.649 41.6247 57.4608 41.6261 57.2639C41.6275 57.0671 41.5524 56.8777 41.4173 56.7375C41.2823 56.5973 41.0983 56.5177 40.9059 56.5163C40.8106 56.5156 40.7162 56.5341 40.6279 56.5707C40.5396 56.6073 40.4592 56.6614 40.3914 56.7298C40.3235 56.7983 40.2695 56.8797 40.2324 56.9694C40.1953 57.0592 40.1758 57.1556 40.1751 57.2531C40.1744 57.3505 40.1925 57.4472 40.2283 57.5375C40.2641 57.6278 40.317 57.7101 40.3839 57.7795C40.4507 57.8489 40.5303 57.9042 40.6181 57.9421C40.7058 57.9801 40.8 58 40.8953 58.0007ZM38.6938 57.2534C38.6942 57.1555 38.6755 57.0586 38.6388 56.9683C38.602 56.878 38.5479 56.7962 38.4797 56.7276C38.4115 56.6591 38.3306 56.6052 38.2417 56.5692C38.1528 56.5332 38.0577 56.5158 37.9621 56.518C37.7697 56.5197 37.5859 56.5996 37.451 56.74C37.3162 56.8804 37.2414 57.0699 37.2431 57.2668C37.2448 57.4636 37.3228 57.6517 37.4601 57.7897C37.5974 57.9276 37.7826 58.0042 37.975 58.0024C38.0706 58.0028 38.1654 57.9836 38.2536 57.946C38.3419 57.9083 38.4219 57.8529 38.4889 57.7831C38.5559 57.7133 38.6085 57.6304 38.6437 57.5394C38.6789 57.4484 38.6959 57.3512 38.6938 57.2534ZM44.5534 57.2534C44.5541 57.1555 44.5356 57.0584 44.499 56.968C44.4624 56.8775 44.4085 56.7955 44.3404 56.7267C44.2723 56.658 44.1914 56.6039 44.1025 56.5676C44.0136 56.5314 43.9185 56.5137 43.8229 56.5157C43.6305 56.5171 43.4465 56.5966 43.3114 56.7367C43.1762 56.8769 43.1011 57.0662 43.1024 57.2631C43.1038 57.4599 43.1815 57.6482 43.3185 57.7864C43.4555 57.9246 43.6405 58.0015 43.8329 58.0001C43.9287 58.001 44.0236 57.9822 44.1122 57.9449C44.2007 57.9076 44.281 57.8525 44.3484 57.7829C44.4158 57.7132 44.4688 57.6305 44.5044 57.5396C44.54 57.4486 44.5574 57.3513 44.5556 57.2534H44.5534Z" fill="#005CAF"/>
<path d="M27.6007 57.9589C28.1029 57.9589 28.6052 57.9543 29.1074 57.9589C29.5248 57.964 29.7542 58.1182 29.8887 58.5201C30.3764 59.9971 30.8536 61.4781 31.3341 62.9574C31.4211 63.2241 31.3536 63.4616 31.2063 63.6865C30.8714 64.2004 30.5472 64.7239 30.1917 65.2235C30.0243 65.4558 30.0516 65.6345 30.18 65.8635C31.0054 67.3359 32.0908 68.58 33.3849 69.6317C33.9145 70.0604 34.5089 70.4047 35.0697 70.7929C35.2165 70.894 35.3309 70.8672 35.4704 70.769C35.9754 70.4127 36.4956 70.0781 36.9978 69.7173C37.2807 69.514 37.5626 69.4638 37.8907 69.578C39.2641 70.0536 40.6403 70.5183 42.0136 70.9939C42.5338 71.1738 42.6549 71.3593 42.6549 71.9188C42.6549 72.8224 42.6549 73.7264 42.6549 74.6308C42.6509 76.0547 41.7062 77.0235 40.3194 76.9996C37.6267 76.9527 35.1294 76.182 32.8219 74.7843C28.9584 72.4435 26.2133 69.1372 24.7384 64.7742C24.2532 63.3309 24.0038 61.8157 24.0001 60.2895C23.9917 58.9495 24.9225 57.9835 26.2323 57.9601C26.6888 57.9526 27.1447 57.9589 27.6007 57.9589Z" fill="#005CAF"/>
<path d="M26.0137 24.2031V37H23.1572V24.2031H26.0137ZM29.9072 24.2031V26.4268H19.3428V24.2031H29.9072ZM34.4955 37.1758C33.7396 37.1758 33.0629 37.0557 32.4652 36.8154C31.8675 36.5752 31.3607 36.2441 30.9447 35.8223C30.5345 35.3945 30.2211 34.9023 30.0043 34.3457C29.7875 33.7891 29.6791 33.1943 29.6791 32.5615V32.2275C29.6791 31.5186 29.7787 30.8652 29.9779 30.2676C30.1771 29.6699 30.4671 29.1514 30.848 28.7119C31.2347 28.2666 31.7093 27.9238 32.2718 27.6836C32.8343 27.4375 33.4759 27.3145 34.1966 27.3145C34.8705 27.3145 35.4711 27.4258 35.9984 27.6484C36.5257 27.8652 36.9711 28.1787 37.3343 28.5889C37.6976 28.9932 37.973 29.4824 38.1605 30.0566C38.3539 30.625 38.4505 31.2637 38.4505 31.9727V33.0977H30.7865V31.3311H35.7611V31.1201C35.7611 30.7861 35.6996 30.4932 35.5765 30.2412C35.4593 29.9893 35.2836 29.7959 35.0492 29.6611C34.8207 29.5205 34.5306 29.4502 34.1791 29.4502C33.8451 29.4502 33.5668 29.5205 33.3441 29.6611C33.1214 29.8018 32.9427 30.001 32.808 30.2588C32.6791 30.5107 32.5853 30.8066 32.5267 31.1465C32.4681 31.4805 32.4388 31.8408 32.4388 32.2275V32.5615C32.4388 32.9307 32.4886 33.2676 32.5882 33.5723C32.6879 33.877 32.8343 34.1377 33.0277 34.3545C33.2211 34.5713 33.4554 34.7412 33.7308 34.8643C34.0062 34.9873 34.3197 35.0488 34.6713 35.0488C35.1048 35.0488 35.5179 34.9668 35.9105 34.8027C36.3031 34.6328 36.6429 34.3691 36.93 34.0117L38.2132 35.4795C38.0199 35.7607 37.7474 36.0332 37.3959 36.2969C37.0502 36.5547 36.6341 36.7656 36.1478 36.9297C35.6615 37.0938 35.1107 37.1758 34.4955 37.1758ZM42.3181 23.5V37H39.5671V23.5H42.3181ZM48.418 37.1758C47.6622 37.1758 46.9854 37.0557 46.3878 36.8154C45.7901 36.5752 45.2833 36.2441 44.8673 35.8223C44.4571 35.3945 44.1436 34.9023 43.9268 34.3457C43.71 33.7891 43.6016 33.1943 43.6016 32.5615V32.2275C43.6016 31.5186 43.7013 30.8652 43.9005 30.2676C44.0997 29.6699 44.3897 29.1514 44.7706 28.7119C45.1573 28.2666 45.6319 27.9238 46.1944 27.6836C46.7569 27.4375 47.3985 27.3145 48.1192 27.3145C48.793 27.3145 49.3936 27.4258 49.921 27.6484C50.4483 27.8652 50.8936 28.1787 51.2569 28.5889C51.6202 28.9932 51.8956 29.4824 52.0831 30.0566C52.2764 30.625 52.3731 31.2637 52.3731 31.9727V33.0977H44.7091V31.3311H49.6837V31.1201C49.6837 30.7861 49.6221 30.4932 49.4991 30.2412C49.3819 29.9893 49.2061 29.7959 48.9718 29.6611C48.7432 29.5205 48.4532 29.4502 48.1016 29.4502C47.7677 29.4502 47.4893 29.5205 47.2667 29.6611C47.044 29.8018 46.8653 30.001 46.7305 30.2588C46.6016 30.5107 46.5079 30.8066 46.4493 31.1465C46.3907 31.4805 46.3614 31.8408 46.3614 32.2275V32.5615C46.3614 32.9307 46.4112 33.2676 46.5108 33.5723C46.6104 33.877 46.7569 34.1377 46.9503 34.3545C47.1436 34.5713 47.378 34.7412 47.6534 34.8643C47.9288 34.9873 48.2423 35.0488 48.5938 35.0488C49.0274 35.0488 49.4405 34.9668 49.8331 34.8027C50.2257 34.6328 50.5655 34.3691 50.8526 34.0117L52.1358 35.4795C51.9425 35.7607 51.67 36.0332 51.3184 36.2969C50.9727 36.5547 50.5567 36.7656 50.0704 36.9297C49.5841 37.0938 49.0333 37.1758 48.418 37.1758ZM56.768 37H54.0082V26.6816C54.0082 25.9492 54.1518 25.334 54.4389 24.8359C54.7319 24.3379 55.145 23.96 55.6782 23.7021C56.2114 23.4443 56.8413 23.3154 57.5678 23.3154C57.8198 23.3154 58.0541 23.333 58.2709 23.3682C58.4936 23.3975 58.7104 23.4385 58.9213 23.4912V25.5391C58.81 25.5098 58.6957 25.4893 58.5786 25.4775C58.4614 25.4658 58.3207 25.46 58.1567 25.46C57.8637 25.46 57.6118 25.5068 57.4008 25.6006C57.1957 25.6885 57.0375 25.8262 56.9262 26.0137C56.8207 26.1953 56.768 26.418 56.768 26.6816V37ZM58.6489 27.4902V29.415H52.6196V27.4902H58.6489ZM59.0799 32.3418V32.1572C59.0799 31.46 59.1795 30.8184 59.3787 30.2324C59.5779 29.6406 59.8709 29.1279 60.2576 28.6943C60.6443 28.2607 61.1189 27.9238 61.6814 27.6836C62.2439 27.4375 62.8885 27.3145 63.615 27.3145C64.3533 27.3145 65.0037 27.4375 65.5662 27.6836C66.1346 27.9238 66.6121 28.2607 66.9988 28.6943C67.3855 29.1279 67.6785 29.6406 67.8777 30.2324C68.077 30.8184 68.1766 31.46 68.1766 32.1572V32.3418C68.1766 33.0332 68.077 33.6748 67.8777 34.2666C67.6785 34.8525 67.3855 35.3652 66.9988 35.8047C66.6121 36.2383 66.1375 36.5752 65.575 36.8154C65.0125 37.0557 64.365 37.1758 63.6326 37.1758C62.9061 37.1758 62.2586 37.0557 61.6902 36.8154C61.1219 36.5752 60.6443 36.2383 60.2576 35.8047C59.8709 35.3652 59.5779 34.8525 59.3787 34.2666C59.1795 33.6748 59.0799 33.0332 59.0799 32.3418ZM61.8309 32.1572V32.3418C61.8309 32.7168 61.8602 33.0684 61.9188 33.3965C61.9832 33.7246 62.0857 34.0117 62.2264 34.2578C62.367 34.5039 62.5516 34.6973 62.7801 34.8379C63.0145 34.9727 63.2986 35.04 63.6326 35.04C63.9666 35.04 64.2479 34.9727 64.4764 34.8379C64.7049 34.6973 64.8895 34.5039 65.0301 34.2578C65.1707 34.0117 65.2703 33.7246 65.3289 33.3965C65.3934 33.0684 65.4256 32.7168 65.4256 32.3418V32.1572C65.4256 31.7881 65.3934 31.4424 65.3289 31.1201C65.2703 30.792 65.1707 30.502 65.0301 30.25C64.8895 29.998 64.702 29.8018 64.4676 29.6611C64.2391 29.5205 63.9549 29.4502 63.615 29.4502C63.2869 29.4502 63.0086 29.5205 62.7801 29.6611C62.5516 29.8018 62.367 29.998 62.2264 30.25C62.0857 30.502 61.9832 30.792 61.9188 31.1201C61.8602 31.4424 61.8309 31.7881 61.8309 32.1572ZM71.9474 29.5205V37H69.1964V27.4902H71.7804L71.9474 29.5205ZM71.5871 31.9111L70.9015 31.9287C70.9015 31.2139 70.9894 30.5723 71.1652 30.0039C71.341 29.4355 71.59 28.9521 71.9123 28.5537C72.2404 28.1494 72.63 27.8418 73.0812 27.6309C73.5382 27.4199 74.0421 27.3145 74.5929 27.3145C75.0382 27.3145 75.4455 27.3789 75.8146 27.5078C76.1838 27.6367 76.5002 27.8447 76.7638 28.1318C77.0334 28.4131 77.2384 28.7881 77.3791 29.2568C77.5197 29.7197 77.59 30.291 77.59 30.9707V37H74.8302V30.9619C74.8302 30.5635 74.7746 30.2559 74.6632 30.0391C74.5519 29.8223 74.3879 29.6699 74.1711 29.582C73.9601 29.4941 73.7023 29.4502 73.3976 29.4502C73.0754 29.4502 72.8 29.5146 72.5714 29.6436C72.3429 29.7666 72.1554 29.9395 72.0089 30.1621C71.8625 30.3848 71.7541 30.6455 71.6838 30.9443C71.6193 31.2432 71.5871 31.5654 71.5871 31.9111ZM81.7124 29.5205V37H78.9614V27.4902H81.5454L81.7124 29.5205ZM81.3521 31.9111L80.6665 31.9287C80.6665 31.2139 80.7544 30.5723 80.9302 30.0039C81.106 29.4355 81.355 28.9521 81.6773 28.5537C82.0054 28.1494 82.395 27.8418 82.8462 27.6309C83.3032 27.4199 83.8071 27.3145 84.3579 27.3145C84.8032 27.3145 85.2105 27.3789 85.5796 27.5078C85.9487 27.6367 86.2652 27.8447 86.5288 28.1318C86.7984 28.4131 87.0034 28.7881 87.1441 29.2568C87.2847 29.7197 87.355 30.291 87.355 30.9707V37H84.5952V30.9619C84.5952 30.5635 84.5396 30.2559 84.4282 30.0391C84.3169 29.8223 84.1529 29.6699 83.9361 29.582C83.7251 29.4941 83.4673 29.4502 83.1626 29.4502C82.8404 29.4502 82.565 29.5146 82.3364 29.6436C82.1079 29.7666 81.9204 29.9395 81.7739 30.1621C81.6275 30.3848 81.5191 30.6455 81.4487 30.9443C81.3843 31.2432 81.3521 31.5654 81.3521 31.9111ZM94.369 34.7061V27.4902H97.1288V37H94.5448L94.369 34.7061ZM94.6591 32.7637L95.4149 32.7461C95.4149 33.3848 95.3388 33.9736 95.1864 34.5127C95.0399 35.0518 94.8173 35.5205 94.5184 35.9189C94.2255 36.3174 93.8593 36.6279 93.4198 36.8506C92.9862 37.0674 92.4794 37.1758 91.8993 37.1758C91.4305 37.1758 90.9999 37.1113 90.6073 36.9824C90.2206 36.8477 89.8866 36.6396 89.6054 36.3584C89.3241 36.0713 89.1073 35.7051 88.955 35.2598C88.8026 34.8086 88.7264 34.2695 88.7264 33.6426V27.4902H91.4686V33.6602C91.4686 33.9062 91.4979 34.1172 91.5565 34.293C91.621 34.4629 91.7059 34.6035 91.8114 34.7148C91.9227 34.8262 92.0575 34.9082 92.2157 34.9609C92.3798 35.0137 92.5585 35.04 92.7518 35.04C93.2382 35.04 93.619 34.9404 93.8944 34.7412C94.1757 34.5361 94.372 34.2637 94.4833 33.9238C94.6005 33.5781 94.6591 33.1914 94.6591 32.7637ZM101.304 29.4854V37H98.5618V27.4902H101.137L101.304 29.4854ZM100.952 31.9111L100.258 31.9287C100.258 31.2607 100.337 30.6484 100.495 30.0918C100.659 29.5293 100.897 29.04 101.207 28.624C101.518 28.208 101.902 27.8857 102.359 27.6572C102.822 27.4287 103.355 27.3145 103.958 27.3145C104.38 27.3145 104.764 27.3789 105.11 27.5078C105.455 27.6309 105.751 27.8271 105.997 28.0967C106.249 28.3604 106.443 28.7061 106.577 29.1338C106.712 29.5557 106.78 30.0625 106.78 30.6543V37H104.037V30.9883C104.037 30.5664 103.985 30.2471 103.879 30.0303C103.78 29.8076 103.633 29.6553 103.44 29.5732C103.246 29.4912 103.015 29.4502 102.745 29.4502C102.452 29.4502 102.192 29.5146 101.963 29.6436C101.74 29.7666 101.553 29.9395 101.401 30.1621C101.248 30.3848 101.134 30.6455 101.058 30.9443C100.988 31.2432 100.952 31.5654 100.952 31.9111ZM106.498 31.7705L105.628 31.8408C105.628 31.1963 105.704 30.5986 105.857 30.0479C106.009 29.4971 106.238 29.0195 106.542 28.6152C106.847 28.2051 107.225 27.8857 107.676 27.6572C108.133 27.4287 108.663 27.3145 109.267 27.3145C109.712 27.3145 110.116 27.3789 110.48 27.5078C110.849 27.6367 111.165 27.8447 111.429 28.1318C111.698 28.4189 111.906 28.7969 112.053 29.2656C112.199 29.7285 112.273 30.2969 112.273 30.9707V37H109.513V30.9707C109.513 30.5547 109.46 30.2383 109.355 30.0215C109.255 29.8047 109.109 29.6553 108.915 29.5732C108.728 29.4912 108.502 29.4502 108.239 29.4502C107.946 29.4502 107.691 29.5117 107.474 29.6348C107.257 29.752 107.075 29.916 106.929 30.127C106.782 30.332 106.674 30.5752 106.604 30.8564C106.533 31.1377 106.498 31.4424 106.498 31.7705ZM116.501 29.4854V37H113.758V27.4902H116.334L116.501 29.4854ZM116.149 31.9111L115.455 31.9287C115.455 31.2607 115.534 30.6484 115.692 30.0918C115.856 29.5293 116.093 29.04 116.404 28.624C116.714 28.208 117.098 27.8857 117.555 27.6572C118.018 27.4287 118.551 27.3145 119.155 27.3145C119.577 27.3145 119.961 27.3789 120.306 27.5078C120.652 27.6309 120.948 27.8271 121.194 28.0967C121.446 28.3604 121.639 28.7061 121.774 29.1338C121.909 29.5557 121.976 30.0625 121.976 30.6543V37H119.234V30.9883C119.234 30.5664 119.181 30.2471 119.076 30.0303C118.976 29.8076 118.83 29.6553 118.636 29.5732C118.443 29.4912 118.212 29.4502 117.942 29.4502C117.649 29.4502 117.388 29.5146 117.16 29.6436C116.937 29.7666 116.75 29.9395 116.597 30.1621C116.445 30.3848 116.331 30.6455 116.254 30.9443C116.184 31.2432 116.149 31.5654 116.149 31.9111ZM121.695 31.7705L120.825 31.8408C120.825 31.1963 120.901 30.5986 121.053 30.0479C121.206 29.4971 121.434 29.0195 121.739 28.6152C122.044 28.2051 122.421 27.8857 122.873 27.6572C123.33 27.4287 123.86 27.3145 124.463 27.3145C124.909 27.3145 125.313 27.3789 125.676 27.5078C126.046 27.6367 126.362 27.8447 126.626 28.1318C126.895 28.4189 127.103 28.7969 127.25 29.2656C127.396 29.7285 127.469 30.2969 127.469 30.9707V37H124.71V30.9707C124.71 30.5547 124.657 30.2383 124.551 30.0215C124.452 29.8047 124.305 29.6553 124.112 29.5732C123.924 29.4912 123.699 29.4502 123.435 29.4502C123.142 29.4502 122.887 29.5117 122.671 29.6348C122.454 29.752 122.272 29.916 122.126 30.127C121.979 30.332 121.871 30.5752 121.8 30.8564C121.73 31.1377 121.695 31.4424 121.695 31.7705ZM133.429 37.1758C132.673 37.1758 131.996 37.0557 131.398 36.8154C130.801 36.5752 130.294 36.2441 129.878 35.8223C129.468 35.3945 129.154 34.9023 128.937 34.3457C128.721 33.7891 128.612 33.1943 128.612 32.5615V32.2275C128.612 31.5186 128.712 30.8652 128.911 30.2676C129.11 29.6699 129.4 29.1514 129.781 28.7119C130.168 28.2666 130.643 27.9238 131.205 27.6836C131.768 27.4375 132.409 27.3145 133.13 27.3145C133.804 27.3145 134.404 27.4258 134.932 27.6484C135.459 27.8652 135.904 28.1787 136.268 28.5889C136.631 28.9932 136.906 29.4824 137.094 30.0566C137.287 30.625 137.384 31.2637 137.384 31.9727V33.0977H129.72V31.3311H134.694V31.1201C134.694 30.7861 134.633 30.4932 134.51 30.2412C134.393 29.9893 134.217 29.7959 133.982 29.6611C133.754 29.5205 133.464 29.4502 133.112 29.4502C132.778 29.4502 132.5 29.5205 132.277 29.6611C132.055 29.8018 131.876 30.001 131.741 30.2588C131.612 30.5107 131.519 30.8066 131.46 31.1465C131.401 31.4805 131.372 31.8408 131.372 32.2275V32.5615C131.372 32.9307 131.422 33.2676 131.521 33.5723C131.621 33.877 131.768 34.1377 131.961 34.3545C132.154 34.5713 132.389 34.7412 132.664 34.8643C132.939 34.9873 133.253 35.0488 133.604 35.0488C134.038 35.0488 134.451 34.9668 134.844 34.8027C135.236 34.6328 135.576 34.3691 135.863 34.0117L137.146 35.4795C136.953 35.7607 136.681 36.0332 136.329 36.2969C135.983 36.5547 135.567 36.7656 135.081 36.9297C134.595 37.0938 134.044 37.1758 133.429 37.1758ZM141.111 29.7051V37H138.368V27.4902H140.944L141.111 29.7051ZM143.95 27.4199L143.906 29.9775C143.788 29.96 143.636 29.9453 143.449 29.9336C143.261 29.916 143.1 29.9072 142.965 29.9072C142.614 29.9072 142.309 29.9512 142.051 30.0391C141.799 30.1211 141.588 30.2441 141.418 30.4082C141.254 30.5723 141.131 30.7773 141.049 31.0234C140.967 31.2637 140.926 31.542 140.926 31.8584L140.408 31.6035C140.408 30.9766 140.469 30.4023 140.592 29.8809C140.715 29.3594 140.894 28.9082 141.128 28.5273C141.363 28.1406 141.65 27.8418 141.99 27.6309C142.329 27.4199 142.716 27.3145 143.15 27.3145C143.29 27.3145 143.434 27.3232 143.58 27.3408C143.727 27.3584 143.85 27.3848 143.95 27.4199ZM151.729 27.4902V37H148.978V27.4902H151.729ZM148.811 25.0293C148.811 24.6309 148.951 24.3057 149.232 24.0537C149.514 23.7959 149.883 23.667 150.34 23.667C150.797 23.667 151.166 23.7959 151.447 24.0537C151.734 24.3057 151.878 24.6309 151.878 25.0293C151.878 25.4219 151.734 25.7471 151.447 26.0049C151.166 26.2568 150.797 26.3828 150.34 26.3828C149.883 26.3828 149.514 26.2568 149.232 26.0049C148.951 25.7471 148.811 25.4219 148.811 25.0293ZM161.661 37H158.848L158.866 34.7852H161.661C162.3 34.7852 162.839 34.6387 163.278 34.3457C163.718 34.0469 164.052 33.6074 164.28 33.0273C164.509 32.4414 164.623 31.7295 164.623 30.8916V30.3027C164.623 29.6699 164.558 29.1133 164.429 28.6328C164.301 28.1465 164.11 27.7393 163.858 27.4111C163.606 27.083 163.293 26.8369 162.918 26.6729C162.549 26.5088 162.124 26.4268 161.643 26.4268H158.796V24.2031H161.643C162.511 24.2031 163.302 24.3496 164.016 24.6426C164.737 24.9355 165.358 25.3545 165.88 25.8994C166.407 26.4443 166.814 27.0889 167.101 27.833C167.388 28.5771 167.532 29.4062 167.532 30.3203V30.8916C167.532 31.7998 167.388 32.6289 167.101 33.3789C166.814 34.123 166.407 34.7676 165.88 35.3125C165.358 35.8516 164.74 36.2676 164.025 36.5605C163.31 36.8535 162.522 37 161.661 37ZM160.474 24.2031V37H157.609V24.2031H160.474ZM173.263 37.1758C172.507 37.1758 171.83 37.0557 171.233 36.8154C170.635 36.5752 170.128 36.2441 169.712 35.8223C169.302 35.3945 168.988 34.9023 168.772 34.3457C168.555 33.7891 168.446 33.1943 168.446 32.5615V32.2275C168.446 31.5186 168.546 30.8652 168.745 30.2676C168.944 29.6699 169.234 29.1514 169.615 28.7119C170.002 28.2666 170.477 27.9238 171.039 27.6836C171.602 27.4375 172.243 27.3145 172.964 27.3145C173.638 27.3145 174.238 27.4258 174.766 27.6484C175.293 27.8652 175.738 28.1787 176.102 28.5889C176.465 28.9932 176.74 29.4824 176.928 30.0566C177.121 30.625 177.218 31.2637 177.218 31.9727V33.0977H169.554V31.3311H174.528V31.1201C174.528 30.7861 174.467 30.4932 174.344 30.2412C174.227 29.9893 174.051 29.7959 173.817 29.6611C173.588 29.5205 173.298 29.4502 172.946 29.4502C172.612 29.4502 172.334 29.5205 172.111 29.6611C171.889 29.8018 171.71 30.001 171.575 30.2588C171.446 30.5107 171.353 30.8066 171.294 31.1465C171.235 31.4805 171.206 31.8408 171.206 32.2275V32.5615C171.206 32.9307 171.256 33.2676 171.356 33.5723C171.455 33.877 171.602 34.1377 171.795 34.3545C171.988 34.5713 172.223 34.7412 172.498 34.8643C172.774 34.9873 173.087 35.0488 173.439 35.0488C173.872 35.0488 174.285 34.9668 174.678 34.8027C175.07 34.6328 175.41 34.3691 175.697 34.0117L176.981 35.4795C176.787 35.7607 176.515 36.0332 176.163 36.2969C175.818 36.5547 175.401 36.7656 174.915 36.9297C174.429 37.0938 173.878 37.1758 173.263 37.1758ZM180.883 29.5205V37H178.132V27.4902H180.716L180.883 29.5205ZM180.523 31.9111L179.837 31.9287C179.837 31.2139 179.925 30.5723 180.101 30.0039C180.277 29.4355 180.526 28.9521 180.848 28.5537C181.176 28.1494 181.566 27.8418 182.017 27.6309C182.474 27.4199 182.978 27.3145 183.529 27.3145C183.974 27.3145 184.381 27.3789 184.75 27.5078C185.12 27.6367 185.436 27.8447 185.7 28.1318C185.969 28.4131 186.174 28.7881 186.315 29.2568C186.456 29.7197 186.526 30.291 186.526 30.9707V37H183.766V30.9619C183.766 30.5635 183.71 30.2559 183.599 30.0391C183.488 29.8223 183.324 29.6699 183.107 29.582C182.896 29.4941 182.638 29.4502 182.333 29.4502C182.011 29.4502 181.736 29.5146 181.507 29.6436C181.279 29.7666 181.091 29.9395 180.945 30.1621C180.798 30.3848 180.69 30.6455 180.62 30.9443C180.555 31.2432 180.523 31.5654 180.523 31.9111ZM190.71 29.4854V37H187.968V27.4902H190.543L190.71 29.4854ZM190.358 31.9111L189.664 31.9287C189.664 31.2607 189.743 30.6484 189.901 30.0918C190.065 29.5293 190.303 29.04 190.613 28.624C190.924 28.208 191.307 27.8857 191.764 27.6572C192.227 27.4287 192.761 27.3145 193.364 27.3145C193.786 27.3145 194.17 27.3789 194.515 27.5078C194.861 27.6309 195.157 27.8271 195.403 28.0967C195.655 28.3604 195.848 28.7061 195.983 29.1338C196.118 29.5557 196.185 30.0625 196.185 30.6543V37H193.443V30.9883C193.443 30.5664 193.39 30.2471 193.285 30.0303C193.185 29.8076 193.039 29.6553 192.846 29.5732C192.652 29.4912 192.421 29.4502 192.151 29.4502C191.858 29.4502 191.598 29.5146 191.369 29.6436C191.146 29.7666 190.959 29.9395 190.806 30.1621C190.654 30.3848 190.54 30.6455 190.464 30.9443C190.393 31.2432 190.358 31.5654 190.358 31.9111ZM195.904 31.7705L195.034 31.8408C195.034 31.1963 195.11 30.5986 195.263 30.0479C195.415 29.4971 195.643 29.0195 195.948 28.6152C196.253 28.2051 196.631 27.8857 197.082 27.6572C197.539 27.4287 198.069 27.3145 198.673 27.3145C199.118 27.3145 199.522 27.3789 199.886 27.5078C200.255 27.6367 200.571 27.8447 200.835 28.1318C201.104 28.4189 201.312 28.7969 201.459 29.2656C201.605 29.7285 201.679 30.2969 201.679 30.9707V37H198.919V30.9707C198.919 30.5547 198.866 30.2383 198.761 30.0215C198.661 29.8047 198.514 29.6553 198.321 29.5732C198.134 29.4912 197.908 29.4502 197.644 29.4502C197.351 29.4502 197.097 29.5117 196.88 29.6348C196.663 29.752 196.481 29.916 196.335 30.127C196.188 30.332 196.08 30.5752 196.01 30.8564C195.939 31.1377 195.904 31.4424 195.904 31.7705ZM208.192 34.7324V30.6543C208.192 30.3672 208.148 30.1211 208.06 29.916C207.972 29.7109 207.834 29.5498 207.647 29.4326C207.459 29.3154 207.216 29.2568 206.917 29.2568C206.665 29.2568 206.446 29.3008 206.258 29.3887C206.076 29.4766 205.936 29.6025 205.836 29.7666C205.742 29.9307 205.696 30.1328 205.696 30.373H202.953C202.953 29.9453 203.05 29.5469 203.243 29.1777C203.437 28.8086 203.712 28.4834 204.07 28.2021C204.433 27.9209 204.866 27.7041 205.37 27.5518C205.874 27.3936 206.44 27.3145 207.067 27.3145C207.811 27.3145 208.473 27.4404 209.053 27.6924C209.639 27.9385 210.102 28.3105 210.442 28.8086C210.781 29.3008 210.951 29.9219 210.951 30.6719V34.6533C210.951 35.2275 210.984 35.6787 211.048 36.0068C211.118 36.3291 211.218 36.6104 211.347 36.8506V37H208.578C208.449 36.7246 208.353 36.3848 208.288 35.9805C208.224 35.5703 208.192 35.1543 208.192 34.7324ZM208.534 31.1992L208.552 32.7109H207.19C206.885 32.7109 206.621 32.749 206.399 32.8252C206.182 32.9014 206.006 33.0068 205.871 33.1416C205.737 33.2705 205.637 33.4229 205.572 33.5986C205.514 33.7686 205.485 33.9561 205.485 34.1611C205.485 34.3545 205.531 34.5303 205.625 34.6885C205.719 34.8408 205.848 34.9609 206.012 35.0488C206.176 35.1367 206.366 35.1807 206.583 35.1807C206.941 35.1807 207.245 35.1104 207.497 34.9697C207.755 34.8291 207.954 34.6592 208.095 34.46C208.236 34.2549 208.306 34.0645 208.306 33.8887L208.965 35.0312C208.86 35.2656 208.731 35.5088 208.578 35.7607C208.426 36.0068 208.233 36.2383 207.998 36.4551C207.764 36.666 207.48 36.8389 207.146 36.9736C206.818 37.1084 206.422 37.1758 205.959 37.1758C205.362 37.1758 204.82 37.0557 204.333 36.8154C203.847 36.5693 203.457 36.2324 203.164 35.8047C202.877 35.377 202.734 34.8848 202.734 34.3281C202.734 33.8301 202.824 33.3877 203.006 33.001C203.188 32.6143 203.46 32.2861 203.823 32.0166C204.193 31.7471 204.655 31.5449 205.212 31.4102C205.769 31.2695 206.419 31.1992 207.163 31.1992H208.534ZM215.144 29.7051V37H212.402V27.4902H214.977L215.144 29.7051ZM217.983 27.4199L217.939 29.9775C217.822 29.96 217.669 29.9453 217.482 29.9336C217.294 29.916 217.133 29.9072 216.999 29.9072C216.647 29.9072 216.342 29.9512 216.085 30.0391C215.833 30.1211 215.622 30.2441 215.452 30.4082C215.288 30.5723 215.165 30.7773 215.083 31.0234C215.001 31.2637 214.96 31.542 214.96 31.8584L214.441 31.6035C214.441 30.9766 214.503 30.4023 214.626 29.8809C214.749 29.3594 214.927 28.9082 215.162 28.5273C215.396 28.1406 215.683 27.8418 216.023 27.6309C216.363 27.4199 216.75 27.3145 217.183 27.3145C217.324 27.3145 217.467 27.3232 217.614 27.3408C217.76 27.3584 217.883 27.3848 217.983 27.4199ZM221.508 23.4912V37H218.757V23.4912H221.508ZM227.546 27.4902L223.406 32.2715L221.218 34.4688L220.119 32.6143L221.894 30.3203L224.241 27.4902H227.546ZM224.645 37L221.965 32.6318L223.934 31.0938L227.792 37H224.645ZM228.267 35.6992C228.267 35.3008 228.408 34.9668 228.689 34.6973C228.976 34.4277 229.348 34.293 229.805 34.293C230.268 34.293 230.637 34.4277 230.912 34.6973C231.194 34.9668 231.334 35.3008 231.334 35.6992C231.334 36.0918 231.194 36.4229 230.912 36.6924C230.637 36.9619 230.268 37.0967 229.805 37.0967C229.348 37.0967 228.976 36.9619 228.689 36.6924C228.408 36.4229 228.267 36.0918 228.267 35.6992ZM228.267 28.5625C228.267 28.1641 228.408 27.8301 228.689 27.5605C228.976 27.291 229.348 27.1562 229.805 27.1562C230.268 27.1562 230.637 27.291 230.912 27.5605C231.194 27.8301 231.334 28.1641 231.334 28.5625C231.334 28.9551 231.194 29.2861 230.912 29.5557C230.637 29.8252 230.268 29.96 229.805 29.96C229.348 29.96 228.976 29.8252 228.689 29.5557C228.408 29.2861 228.267 28.9551 228.267 28.5625Z" fill="#F60A41"/>
<path d="M60.06 70.274V67.394H57.468V65.684H60.06V62.876H62.004V65.684H64.614V67.394H62.004V70.274H60.06ZM70.0179 74V70.724H65.5359V68.51L69.3339 59.42H72.8259V68.492H74.1759V70.724H72.8259V74H70.0179ZM67.8219 68.492H70.0179V62.426L67.8219 68.492ZM79.4574 74V70.724H74.9754V68.51L78.7734 59.42H82.2654V68.492H83.6154V70.724H82.2654V74H79.4574ZM77.2614 68.492H79.4574V62.426L77.2614 68.492ZM90.9643 74V62.39C90.8323 62.462 90.6823 62.534 90.5143 62.606C90.3463 62.678 90.1663 62.756 89.9743 62.84C89.7943 62.912 89.6143 62.984 89.4343 63.056C89.2663 63.128 89.1103 63.2 88.9663 63.272V61.04C89.0983 60.968 89.2843 60.872 89.5243 60.752C89.7643 60.62 90.0223 60.476 90.2983 60.32C90.5743 60.164 90.8323 60.008 91.0723 59.852C91.3123 59.684 91.4923 59.54 91.6123 59.42H93.9703V74H90.9643ZM100.086 74.27C99.0181 74.27 98.2081 74.084 97.6561 73.712C97.1161 73.328 96.7501 72.794 96.5581 72.11C96.3661 71.426 96.2701 70.634 96.2701 69.734H99.1681C99.1681 70.286 99.1981 70.736 99.2581 71.084C99.3181 71.432 99.4261 71.684 99.5821 71.84C99.7501 71.984 99.9841 72.05 100.284 72.038C100.596 72.026 100.818 71.9 100.95 71.66C101.082 71.42 101.16 71.078 101.184 70.634C101.22 70.178 101.238 69.632 101.238 68.996C101.238 68.516 101.208 68.09 101.148 67.718C101.1 67.346 100.992 67.052 100.824 66.836C100.668 66.608 100.428 66.494 100.104 66.494C99.8041 66.494 99.5581 66.602 99.3661 66.818C99.1741 67.034 99.0361 67.37 98.9521 67.826H96.3601L96.6301 59.42H103.434V61.94H99.0421L98.8801 64.946C99.0001 64.778 99.2281 64.634 99.5641 64.514C99.9001 64.382 100.26 64.298 100.644 64.262C101.388 64.178 102.012 64.316 102.516 64.676C103.032 65.024 103.416 65.558 103.668 66.278C103.932 66.998 104.064 67.88 104.064 68.924C104.064 69.704 104.016 70.424 103.92 71.084C103.824 71.732 103.638 72.296 103.362 72.776C103.086 73.244 102.684 73.61 102.156 73.874C101.628 74.138 100.938 74.27 100.086 74.27ZM109.622 74.216C108.674 74.216 107.9 74.012 107.3 73.604C106.712 73.184 106.28 72.614 106.004 71.894C105.728 71.174 105.59 70.352 105.59 69.428V64.154C105.59 63.206 105.698 62.36 105.914 61.616C106.142 60.872 106.544 60.29 107.12 59.87C107.696 59.438 108.524 59.222 109.604 59.222C110.54 59.222 111.278 59.366 111.818 59.654C112.358 59.942 112.742 60.362 112.97 60.914C113.198 61.466 113.312 62.15 113.312 62.966C113.312 63.014 113.312 63.062 113.312 63.11C113.324 63.146 113.33 63.182 113.33 63.218H110.504C110.504 62.63 110.456 62.198 110.36 61.922C110.276 61.634 110.03 61.49 109.622 61.49C109.346 61.49 109.136 61.574 108.992 61.742C108.86 61.91 108.77 62.204 108.722 62.624C108.674 63.044 108.65 63.632 108.65 64.388V65.684C108.794 65.432 109.028 65.24 109.352 65.108C109.676 64.964 110.042 64.886 110.45 64.874C111.218 64.85 111.83 65.024 112.286 65.396C112.754 65.768 113.09 66.278 113.294 66.926C113.498 67.562 113.6 68.276 113.6 69.068C113.6 70.088 113.48 70.988 113.24 71.768C113 72.536 112.592 73.136 112.016 73.568C111.44 74 110.642 74.216 109.622 74.216ZM109.658 72.002C109.934 72.002 110.132 71.912 110.252 71.732C110.384 71.54 110.468 71.264 110.504 70.904C110.552 70.532 110.576 70.076 110.576 69.536C110.576 69.056 110.558 68.642 110.522 68.294C110.498 67.946 110.42 67.676 110.288 67.484C110.156 67.28 109.934 67.178 109.622 67.178C109.478 67.178 109.34 67.208 109.208 67.268C109.076 67.328 108.962 67.406 108.866 67.502C108.77 67.586 108.698 67.67 108.65 67.754V70.13C108.65 70.454 108.674 70.76 108.722 71.048C108.782 71.336 108.884 71.57 109.028 71.75C109.184 71.918 109.394 72.002 109.658 72.002ZM119.683 74V71.876L123.175 66.512C123.439 66.116 123.685 65.732 123.913 65.36C124.153 64.988 124.345 64.61 124.489 64.226C124.645 63.842 124.723 63.44 124.723 63.02C124.723 62.6 124.639 62.288 124.471 62.084C124.303 61.88 124.075 61.778 123.787 61.778C123.463 61.778 123.211 61.868 123.031 62.048C122.851 62.228 122.725 62.468 122.653 62.768C122.593 63.068 122.563 63.404 122.563 63.776V64.496H119.647V63.722C119.647 62.858 119.785 62.09 120.061 61.418C120.337 60.734 120.775 60.2 121.375 59.816C121.975 59.42 122.761 59.222 123.733 59.222C125.041 59.222 126.025 59.564 126.685 60.248C127.357 60.92 127.693 61.862 127.693 63.074C127.693 63.662 127.597 64.208 127.405 64.712C127.225 65.216 126.979 65.708 126.667 66.188C126.367 66.656 126.043 67.148 125.695 67.664L123.031 71.642H127.297V74H119.683ZM132.781 74.27C131.713 74.27 130.903 74.084 130.351 73.712C129.811 73.328 129.445 72.794 129.253 72.11C129.061 71.426 128.965 70.634 128.965 69.734H131.863C131.863 70.286 131.893 70.736 131.953 71.084C132.013 71.432 132.121 71.684 132.277 71.84C132.445 71.984 132.679 72.05 132.979 72.038C133.291 72.026 133.513 71.9 133.645 71.66C133.777 71.42 133.855 71.078 133.879 70.634C133.915 70.178 133.933 69.632 133.933 68.996C133.933 68.516 133.903 68.09 133.843 67.718C133.795 67.346 133.687 67.052 133.519 66.836C133.363 66.608 133.123 66.494 132.799 66.494C132.499 66.494 132.253 66.602 132.061 66.818C131.869 67.034 131.731 67.37 131.647 67.826H129.055L129.325 59.42H136.129V61.94H131.737L131.575 64.946C131.695 64.778 131.923 64.634 132.259 64.514C132.595 64.382 132.955 64.298 133.339 64.262C134.083 64.178 134.707 64.316 135.211 64.676C135.727 65.024 136.111 65.558 136.363 66.278C136.627 66.998 136.759 67.88 136.759 68.924C136.759 69.704 136.711 70.424 136.615 71.084C136.519 71.732 136.333 72.296 136.057 72.776C135.781 73.244 135.379 73.61 134.851 73.874C134.323 74.138 133.633 74.27 132.781 74.27ZM142.282 74V70.724H137.8V68.51L141.598 59.42H145.09V68.492H146.44V70.724H145.09V74H142.282ZM140.086 68.492H142.282V62.426L140.086 68.492ZM156.093 74.216C155.157 74.216 154.419 74.072 153.879 73.784C153.339 73.496 152.955 73.076 152.727 72.524C152.499 71.96 152.385 71.27 152.385 70.454C152.385 70.418 152.385 70.382 152.385 70.346C152.385 70.298 152.385 70.256 152.385 70.22H155.193C155.193 70.808 155.241 71.246 155.337 71.534C155.445 71.81 155.703 71.948 156.111 71.948C156.387 71.948 156.591 71.864 156.723 71.696C156.855 71.528 156.939 71.234 156.975 70.814C157.023 70.382 157.047 69.794 157.047 69.05V67.754C156.891 68.006 156.651 68.198 156.327 68.33C156.015 68.462 155.661 68.54 155.265 68.564C154.497 68.576 153.879 68.384 153.411 67.988C152.943 67.592 152.607 67.058 152.403 66.386C152.199 65.714 152.097 64.982 152.097 64.19C152.097 63.17 152.223 62.294 152.475 61.562C152.739 60.818 153.165 60.242 153.753 59.834C154.341 59.426 155.121 59.222 156.093 59.222C157.053 59.222 157.827 59.414 158.415 59.798C159.003 60.182 159.429 60.722 159.693 61.418C159.969 62.102 160.107 62.912 160.107 63.848V69.284C160.107 70.232 159.993 71.078 159.765 71.822C159.549 72.566 159.153 73.154 158.577 73.586C158.001 74.006 157.173 74.216 156.093 74.216ZM156.129 66.26C156.369 66.26 156.561 66.194 156.705 66.062C156.849 65.93 156.963 65.804 157.047 65.684V63.308C157.047 62.972 157.023 62.666 156.975 62.39C156.927 62.102 156.837 61.874 156.705 61.706C156.573 61.526 156.369 61.436 156.093 61.436C155.829 61.436 155.631 61.532 155.499 61.724C155.367 61.904 155.277 62.18 155.229 62.552C155.193 62.912 155.175 63.362 155.175 63.902C155.175 64.37 155.187 64.784 155.211 65.144C155.247 65.492 155.331 65.768 155.463 65.972C155.595 66.164 155.817 66.26 156.129 66.26ZM166.012 74V70.724H161.53V68.51L165.328 59.42H168.82V68.492H170.17V70.724H168.82V74H166.012ZM163.816 68.492H166.012V62.426L163.816 68.492ZM175.452 74V70.724H170.97V68.51L174.768 59.42H178.26V68.492H179.61V70.724H178.26V74H175.452ZM173.256 68.492H175.452V62.426L173.256 68.492ZM184.549 74.27C183.481 74.27 182.671 74.084 182.119 73.712C181.579 73.328 181.213 72.794 181.021 72.11C180.829 71.426 180.733 70.634 180.733 69.734H183.631C183.631 70.286 183.661 70.736 183.721 71.084C183.781 71.432 183.889 71.684 184.045 71.84C184.213 71.984 184.447 72.05 184.747 72.038C185.059 72.026 185.281 71.9 185.413 71.66C185.545 71.42 185.623 71.078 185.647 70.634C185.683 70.178 185.701 69.632 185.701 68.996C185.701 68.516 185.671 68.09 185.611 67.718C185.563 67.346 185.455 67.052 185.287 66.836C185.131 66.608 184.891 66.494 184.567 66.494C184.267 66.494 184.021 66.602 183.829 66.818C183.637 67.034 183.499 67.37 183.415 67.826H180.823L181.093 59.42H187.897V61.94H183.505L183.343 64.946C183.463 64.778 183.691 64.634 184.027 64.514C184.363 64.382 184.723 64.298 185.107 64.262C185.851 64.178 186.475 64.316 186.979 64.676C187.495 65.024 187.879 65.558 188.131 66.278C188.395 66.998 188.527 67.88 188.527 68.924C188.527 69.704 188.479 70.424 188.383 71.084C188.287 71.732 188.101 72.296 187.825 72.776C187.549 73.244 187.147 73.61 186.619 73.874C186.091 74.138 185.401 74.27 184.549 74.27Z" fill="#005CAF"/>
</svg>
